<svg width="270" height="173" viewBox="0 0 270 173" fill="none" xmlns="http://www.w3.org/2000/svg">
<g clip-path="url(#clip0)">
<path d="M73.3383 58.0117C85.2221 58.0117 94.8558 48.3853 94.8558 36.5106C94.8558 24.6359 85.2221 15.0095 73.3383 15.0095C61.4546 15.0095 51.8209 24.6359 51.8209 36.5106C51.8209 48.3853 61.4546 58.0117 73.3383 58.0117Z" fill="#282117"/>
<path d="M187.705 125.46H12.0725L75.2012 35.2677L99.8873 0L118.678 26.8439L187.705 125.46Z" fill="#F2F2F2"/>
<path d="M180.033 34.1543L116.122 125.46H243.944L180.033 34.1543L116.122 125.46H243.944L180.033 34.1543Z" fill="#F2F2F2"/>
<path d="M99.8873 0L101.341 25.3183L96.5385 61.7508C96.5385 61.7508 136.203 82.6179 136.31 83.5689C136.417 84.5198 127.955 111.274 127.955 111.274L187.705 125.46L99.8873 0Z" fill="#E6E6E6"/>
<path d="M180.033 34.1543L190.453 58.6531L208.928 95.7122L219.864 101.299C219.864 101.299 219.147 109.977 219.196 111.092C219.244 112.206 243.944 125.46 243.944 125.46L180.033 34.1543Z" fill="#E6E6E6"/>
<path d="M269.705 125.46H0.29476C0.216585 125.46 0.141611 125.429 0.0863329 125.374C0.0310547 125.319 0 125.244 0 125.166C0 125.088 0.0310547 125.013 0.0863329 124.957C0.141611 124.902 0.216585 124.871 0.29476 124.871H269.705C269.783 124.871 269.858 124.902 269.914 124.957C269.969 125.013 270 125.088 270 125.166C270 125.244 269.969 125.319 269.914 125.374C269.858 125.429 269.783 125.46 269.705 125.46Z" fill="#CCCCCC"/>
<path d="M59.7097 108.032C72.4459 108.032 82.7707 97.7155 82.7707 84.989C82.7707 72.2624 72.4459 61.9455 59.7097 61.9455C46.9734 61.9455 36.6487 72.2624 36.6487 84.989C36.6487 97.7155 46.9734 108.032 59.7097 108.032Z" fill="#507A4F"/>
<path opacity="0.2" d="M42.6822 69.5977C40.5311 74.6257 40.2393 80.254 41.8589 85.4771C43.4785 90.7003 46.904 95.1777 51.5232 98.1095C56.1424 101.041 61.6544 102.236 67.0742 101.481C72.494 100.725 77.4684 98.069 81.1086 93.9862C79.7945 97.0581 77.8278 99.8077 75.3448 102.045C72.8617 104.282 69.9215 105.952 66.7281 106.941C63.5347 107.93 60.1643 108.213 56.8504 107.771C53.5365 107.329 50.3585 106.173 47.5364 104.382C44.7143 102.59 42.3156 100.208 40.5066 97.3982C38.6976 94.5888 37.5215 91.4199 37.0597 88.1113C36.598 84.8026 36.8617 81.4331 37.8325 78.2364C38.8033 75.0396 40.4581 72.092 42.6822 69.5977V69.5977Z" fill="black"/>
<path d="M59.7729 84.989H59.8365L60.9767 150.321H58.5694L59.7729 84.989Z" fill="#3F3D56"/>
<path d="M89.4804 136.657C100.426 136.657 109.299 127.791 109.299 116.854C109.299 105.917 100.426 97.0502 89.4804 97.0502C78.5349 97.0502 69.6618 105.917 69.6618 116.854C69.6618 127.791 78.5349 136.657 89.4804 136.657Z" fill="#282117"/>
<path opacity="0.2" d="M74.847 103.627C72.9983 107.948 72.7475 112.785 74.1394 117.273C75.5313 121.762 78.4752 125.61 82.445 128.13C86.4147 130.649 91.1517 131.676 95.8095 131.027C100.467 130.378 104.742 128.095 107.871 124.586C106.741 127.226 105.051 129.589 102.917 131.511C100.783 133.434 98.2565 134.87 95.5121 135.72C92.7676 136.569 89.8711 136.813 87.0232 136.433C84.1752 136.053 81.444 135.059 79.0187 133.52C76.5934 131.98 74.532 129.933 72.9773 127.518C71.4226 125.104 70.4119 122.381 70.0151 119.537C69.6182 116.694 69.8448 113.798 70.6792 111.051C71.5135 108.303 72.9356 105.77 74.847 103.627V103.627Z" fill="black"/>
<path d="M89.5348 116.854H89.5893L90.5694 173H88.5005L89.5348 116.854Z" fill="#3F3D56"/>
<path d="M116.442 87.0145C131.783 87.0145 144.219 74.5879 144.219 59.259C144.219 43.9301 131.783 31.5035 116.442 31.5035C101.102 31.5035 88.6658 43.9301 88.6658 59.259C88.6658 74.5879 101.102 87.0145 116.442 87.0145Z" fill="#282117"/>
<path opacity="0.2" d="M136.952 40.7205C139.543 46.7766 139.894 53.5559 137.944 59.847C135.993 66.1382 131.867 71.5313 126.303 75.0625C120.739 78.5937 114.1 80.033 107.572 79.1232C101.044 78.2134 95.0523 75.0138 90.6678 70.0961C92.2505 73.7961 94.6194 77.108 97.6102 79.8024C100.601 82.4968 104.142 84.5092 107.989 85.7002C111.835 86.8912 115.895 87.2323 119.886 86.7C123.878 86.1676 127.706 84.7745 131.105 82.6171C134.504 80.4597 137.393 77.5896 139.572 74.2057C141.751 70.8219 143.168 67.0051 143.724 63.0198C144.28 59.0345 143.963 54.9761 142.793 51.1256C141.624 47.2752 139.631 43.7248 136.952 40.7205V40.7205Z" fill="black"/>
<path d="M116.366 59.259H116.29L114.916 137.95H117.816L116.366 59.259Z" fill="#3F3D56"/>
<path d="M158.806 34.3391L162.577 31.325C159.647 31.002 158.443 32.5987 157.951 33.8624C155.662 32.9127 153.17 34.1574 153.17 34.1574L160.716 36.8947C160.335 35.8787 159.673 34.9922 158.806 34.3391V34.3391Z" fill="#3F3D56"/>
<path d="M163.694 10.8474L167.465 7.83326C164.535 7.51026 163.332 9.10692 162.839 10.3707C160.55 9.42097 158.058 10.6656 158.058 10.6656L165.604 13.403C165.223 12.3869 164.561 11.5004 163.694 10.8474V10.8474Z" fill="#3F3D56"/>
<path d="M190.849 35.5744L194.621 32.5602C191.691 32.2373 190.487 33.8339 189.994 35.0977C187.705 34.1479 185.214 35.3926 185.214 35.3926L192.76 38.1299C192.379 37.1139 191.716 36.2274 190.849 35.5744V35.5744Z" fill="#3F3D56"/>
<path d="M199.718 168.396C199.718 168.396 199.862 165.374 202.821 165.726Z" fill="#3F3D56"/>
<path d="M212.256 168.396C212.256 168.396 212.401 165.374 215.359 165.726Z" fill="#3F3D56"/>
<path d="M206.405 168.396C206.405 168.396 206.55 165.374 209.508 165.726Z" fill="#3F3D56"/>
<path d="M194.335 168.396C194.335 168.396 194.191 165.374 191.233 165.726Z" fill="#3F3D56"/>
<path d="M206.873 168.605C206.873 168.605 206.729 165.583 203.771 165.934Z" fill="#3F3D56"/>
<path d="M155.054 124.694L154.76 124.888L176.927 158.448L177.222 158.254L155.054 124.694Z" fill="#2F2E41"/>
<path d="M141.768 165.843L143.931 165.843L144.96 157.506L141.767 157.506L141.768 165.843Z" fill="#A0616A"/>
<path d="M141.216 165.137L145.476 165.137H145.476C146.196 165.137 146.887 165.423 147.396 165.932C147.905 166.44 148.191 167.13 148.191 167.85V167.938L141.216 167.938L141.216 165.137Z" fill="#2F2E41"/>
<path d="M127.631 163.774L129.663 164.514L133.484 157.031L130.484 155.94L127.631 163.774Z" fill="#A0616A"/>
<path d="M127.354 162.923L131.357 164.378L131.357 164.378C132.034 164.625 132.585 165.129 132.889 165.781C133.193 166.433 133.226 167.179 132.979 167.855L132.949 167.938L126.395 165.555L127.354 162.923Z" fill="#2F2E41"/>
<path d="M141.151 108.925L145.739 110.336L149.444 116.507L148.032 123.735L147.326 130.082V158.291C147.326 158.291 141.897 159.701 139.583 158.291L140.445 141.894L134.623 159.349L128.095 156.88L135.505 132.374C135.386 130.562 135.689 128.747 136.392 127.071C137.027 125.58 138.144 124.344 139.563 123.559V122.148L138.152 113.157L141.151 108.925Z" fill="#507A4F"/>
<path d="M144.628 108.214C147.022 108.214 148.962 106.275 148.962 103.883C148.962 101.492 147.022 99.5531 144.628 99.5531C142.235 99.5531 140.295 101.492 140.295 103.883C140.295 106.275 142.235 108.214 144.628 108.214Z" fill="#A0616A"/>
<path d="M148.812 102.754C148.225 102.637 147.617 102.706 147.071 102.952C146.526 103.197 146.07 103.606 145.769 104.122C145.62 103.574 144.735 103.603 144.408 104.067C144.081 104.531 144.153 105.158 144.259 105.716C144.366 106.273 144.486 106.879 144.228 107.385C144.09 107.622 143.893 107.817 143.655 107.953C143.417 108.088 143.148 108.157 142.874 108.155C142.326 108.142 141.792 107.972 141.337 107.666C140.488 107.144 139.81 106.387 139.384 105.488C138.958 104.588 138.803 103.584 138.938 102.597C139.073 101.611 139.491 100.685 140.143 99.9325C140.795 99.1797 141.651 98.6324 142.609 98.3571C143.68 98.0491 144.817 98.0967 145.929 98.1586C146.836 98.16 147.736 98.3174 148.589 98.6239C149.423 98.9763 150.164 99.6773 150.317 100.568C150.471 101.459 149.949 103.055 149.048 103.134" fill="#2F2E41"/>
<path d="M141.981 98.9656C142.374 98.9004 142.755 98.7784 143.113 98.6035C143.29 98.5165 143.446 98.3916 143.569 98.2377C143.692 98.0838 143.78 97.9047 143.826 97.7131C143.862 97.522 143.826 97.3243 143.725 97.1582C143.623 96.9922 143.464 96.8698 143.277 96.8147C142.992 96.7911 142.704 96.8386 142.441 96.9529C142.311 97.0088 142.168 97.031 142.026 97.0172C141.884 97.0035 141.748 96.9544 141.631 96.8744C141.398 96.656 141.453 96.2612 141.254 96.0129C141.147 95.9053 141.01 95.8328 140.86 95.8052C140.711 95.7776 140.557 95.7961 140.418 95.8584C140.142 95.987 139.895 96.1715 139.693 96.4002L138.625 97.4573C138.418 97.6629 138.193 97.9182 138.245 98.1987C138.294 98.343 138.394 98.4643 138.527 98.5397C138.659 98.6151 138.815 98.6393 138.964 98.6078C139.266 98.5381 139.546 98.3954 139.78 98.1921C139.445 98.4006 139.175 98.6988 139.001 99.0527C138.918 99.2271 138.885 99.421 138.905 99.6131C138.925 99.8051 138.998 99.9878 139.116 100.141C139.497 100.58 140.22 100.52 140.776 100.301C141.509 100.011 142.144 99.5169 142.606 98.8776" fill="#2F2E41"/>
<path d="M141.99 97.684C141.012 97.4603 140.046 97.14 139.367 96.6065C138.687 96.073 138.349 95.2899 138.735 94.6318C138.54 94.9657 138.446 95.3486 138.464 95.7346C138.482 96.1206 138.611 96.4932 138.835 96.8077C139.421 97.5614 140.263 98.0749 141.201 98.2511C141.4 98.3124 141.612 98.3118 141.809 98.2494C141.986 98.171 141.991 97.9403 141.786 97.9105" fill="#2F2E41"/>
<path d="M154.135 123.175C154.05 123.223 153.97 123.278 153.894 123.34L145.54 120.736L145.071 118.664L141.849 118.964L142.324 122.712C142.363 123.015 142.498 123.297 142.711 123.517C142.923 123.736 143.201 123.88 143.503 123.928L153.334 125.49C153.478 125.838 153.723 126.133 154.039 126.338C154.354 126.543 154.725 126.646 155.101 126.635C155.477 126.624 155.84 126.499 156.143 126.277C156.447 126.054 156.675 125.745 156.797 125.39C156.92 125.035 156.932 124.65 156.831 124.288C156.73 123.926 156.521 123.604 156.232 123.363C155.943 123.123 155.588 122.976 155.213 122.942C154.838 122.909 154.462 122.99 154.135 123.175V123.175Z" fill="#A0616A"/>
<path d="M141.504 111.923C141.504 111.923 142.259 109.768 144.528 109.964C146.797 110.16 145.562 118.798 145.562 118.798L141.151 124.793L141.504 111.923Z" fill="#2F2E41"/>
<path d="M166.709 165.643L165.132 162.27L167.57 161.131L169.148 164.505V164.505C169.298 164.828 169.314 165.197 169.192 165.532C169.071 165.867 168.821 166.14 168.498 166.291C168.174 166.442 167.805 166.458 167.469 166.337C167.134 166.215 166.861 165.966 166.709 165.643V165.643Z" fill="#282117"/>
<path d="M161.281 158.424C162.195 158.424 162.937 157.683 162.937 156.769C162.937 155.855 162.195 155.114 161.281 155.114C160.366 155.114 159.625 155.855 159.625 156.769C159.625 157.683 160.366 158.424 161.281 158.424Z" fill="#282117"/>
<path d="M173.965 166.317L172.387 162.944L174.826 161.805L176.403 165.179C176.554 165.502 176.571 165.872 176.449 166.207C176.327 166.542 176.077 166.815 175.754 166.966C175.431 167.117 175.061 167.134 174.725 167.012C174.39 166.89 174.116 166.64 173.965 166.317V166.317Z" fill="#282117"/>
<path d="M161.285 160.118C161.373 159.19 161.825 158.334 162.543 157.739C163.261 157.143 164.186 156.857 165.115 156.942L176.209 157.972C176.602 158.009 176.964 158.2 177.215 158.504C177.467 158.807 177.588 159.198 177.552 159.59L177.435 160.852C177.329 161.981 176.778 163.023 175.904 163.748C175.03 164.472 173.904 164.821 172.773 164.717L164.464 163.945C163.535 163.858 162.678 163.406 162.082 162.688C161.487 161.971 161.2 161.047 161.285 160.118Z" fill="#3F3D56"/>
<path d="M163.342 165.747L163.687 162.039L166.367 162.288L166.022 165.996C165.988 166.35 165.816 166.678 165.541 166.905C165.266 167.133 164.913 167.242 164.557 167.209C164.202 167.176 163.874 167.004 163.646 166.729C163.419 166.455 163.309 166.102 163.342 165.747V165.747Z" fill="#3F3D56"/>
<path d="M171.118 166.469L171.463 162.761L174.143 163.01L173.798 166.718C173.765 167.073 173.592 167.4 173.317 167.628C173.042 167.855 172.689 167.965 172.333 167.932C171.978 167.899 171.651 167.726 171.423 167.452C171.195 167.177 171.085 166.824 171.118 166.469V166.469Z" fill="#3F3D56"/>
<path d="M183.386 152.812C183.537 152.656 183.718 152.53 183.918 152.443C184.117 152.356 184.332 152.31 184.55 152.306C184.768 152.302 184.985 152.341 185.187 152.421C185.39 152.501 185.575 152.62 185.731 152.772C185.888 152.923 186.013 153.104 186.099 153.304C186.186 153.504 186.232 153.719 186.235 153.936C186.238 154.154 186.198 154.37 186.118 154.572C186.037 154.775 185.918 154.959 185.766 155.115L182.741 158.236L180.362 155.933L183.386 152.812Z" fill="#282117"/>
<path d="M176.238 158.85L178.661 156.35C179.25 155.743 180.056 155.395 180.902 155.381C181.747 155.368 182.564 155.69 183.172 156.277L183.8 156.885C184.523 157.587 184.939 158.547 184.955 159.554C184.971 160.561 184.587 161.534 183.886 162.259L181.89 164.319C181.669 164.546 181.367 164.676 181.051 164.681C180.734 164.686 180.428 164.565 180.201 164.346L176.265 160.537C176.038 160.317 175.908 160.015 175.902 159.699C175.897 159.383 176.018 159.077 176.238 158.85V158.85Z" fill="#3F3D56"/>
<path d="M183.746 152.441C183.85 152.334 183.974 152.248 184.112 152.188C184.249 152.129 184.396 152.097 184.546 152.095C184.695 152.092 184.844 152.12 184.983 152.174C185.122 152.229 185.249 152.311 185.356 152.415C185.464 152.519 185.55 152.643 185.609 152.78C185.668 152.917 185.7 153.065 185.703 153.214C185.705 153.364 185.678 153.512 185.623 153.651C185.568 153.79 185.486 153.917 185.382 154.024L181.998 157.516L180.362 155.933L183.746 152.441Z" fill="#3F3D56"/>
<path d="M178.814 158.346L183.126 162.519C183.441 162.825 183.621 163.243 183.627 163.681C183.634 164.119 183.466 164.542 183.161 164.857C182.856 165.172 182.438 165.353 182 165.36C181.561 165.368 181.138 165.201 180.822 164.897L176.509 160.724L178.814 158.346Z" fill="#3F3D56"/>
<path d="M183.352 165C183.621 164.723 183.713 164.378 183.559 164.229C183.405 164.08 183.063 164.184 182.794 164.461C182.526 164.738 182.433 165.083 182.587 165.232C182.741 165.381 183.084 165.277 183.352 165Z" fill="#282117"/>
<path d="M176.704 162.434H177.586V157.497H176.704V162.434Z" fill="#2F2E41"/>
<path d="M227.969 141.498H225.438L224.234 131.744H227.97L227.969 141.498Z" fill="#FFB8B8"/>
<path d="M228.614 143.949L220.454 143.949V143.846C220.454 143.004 220.789 142.197 221.384 141.602C221.98 141.006 222.788 140.672 223.63 140.672H223.631L228.615 140.672L228.614 143.949Z" fill="#2F2E41"/>
<path d="M254.499 116.034L254.987 118.515L245.642 121.58L244.921 117.918L254.499 116.034Z" fill="#FFB8B8"/>
<path d="M256.781 114.928L258.357 122.928L258.256 122.948C257.429 123.111 256.572 122.939 255.872 122.47C255.173 122.001 254.689 121.273 254.526 120.447L254.526 120.447L253.563 115.561L256.781 114.928Z" fill="#2F2E41"/>
<path d="M225.263 111.545C225.263 111.545 232.551 119.019 235.428 122.469C238.305 125.919 240.031 123.427 240.031 123.427L247.386 121.458L251.539 120.169C251.539 120.169 250.772 116.528 250.58 116.72C250.388 116.911 239.129 117.952 239.129 117.952C239.129 117.952 236.195 114.42 236.004 112.12C235.812 109.82 230.825 107.137 230.825 107.137L225.263 111.545Z" fill="#282117"/>
<path d="M226.605 111.353C226.605 111.353 225.071 117.87 222.863 119.743C220.655 121.616 221.81 123.236 221.81 123.236L224.879 136.46L228.715 136.268C228.715 136.268 227.348 125.481 227.156 124.14C226.964 122.798 231.784 116.528 231.784 116.528L226.605 111.353Z" fill="#282117"/>
<path d="M213.972 102.165C215.773 102.165 217.233 100.706 217.233 98.9068C217.233 97.1074 215.773 95.6487 213.972 95.6487C212.172 95.6487 210.712 97.1074 210.712 98.9068C210.712 100.706 212.172 102.165 213.972 102.165Z" fill="#FFB8B8"/>
<path d="M221.043 108.287C221.619 108.287 223.345 111.545 223.345 111.545C223.345 111.545 227.181 112.695 227.756 111.737C228.332 110.778 229.866 109.245 231.209 108.67C232.551 108.095 231.976 107.52 231.209 106.945C230.441 106.37 227.948 104.837 225.646 102.154C223.345 99.4709 219.701 98.8959 219.317 98.8959C218.933 98.8959 217.974 102.729 217.974 102.729C217.399 103.879 220.468 108.287 221.043 108.287Z" fill="#507A4F"/>
<path d="M212.649 97.3906C213.316 97.7007 214.091 99.3253 215.027 98.6183C215.106 98.5447 215.19 98.4767 215.278 98.4147C215.411 98.3633 215.557 98.3567 215.694 98.3959C215.831 98.435 215.951 98.5178 216.037 98.6316C216.227 98.8432 216.339 99.1144 216.521 99.3328C216.602 99.4499 216.718 99.5391 216.851 99.588C216.985 99.6369 217.131 99.6432 217.269 99.606L217.715 98.6364C217.832 98.4077 217.921 98.1661 217.981 97.9167C218.027 97.5816 217.995 97.2405 217.888 96.9196C217.782 96.5986 217.603 96.3063 217.366 96.065C216.888 95.5868 216.34 95.1853 215.739 94.8747C215.343 94.6137 214.907 94.4184 214.448 94.2964C214.217 94.2375 213.976 94.2345 213.745 94.2875C213.513 94.3405 213.297 94.448 213.116 94.6012C212.995 94.7452 212.864 94.8799 212.724 95.0042C212.47 95.1264 212.202 95.217 211.926 95.274C211.411 95.4711 211.11 95.9945 210.851 96.4805C210.715 96.6927 210.632 96.9336 210.606 97.1839C210.582 98.3228 212.053 97.1132 212.649 97.3906Z" fill="#2F2E41"/>
<path d="M219.797 144.108C225.1 143.919 233.511 144.106 233.595 144.108L233.713 144.11L233.768 144.007C233.781 143.984 235.068 141.644 236.822 141.996L236.898 141.62C235.072 141.255 233.778 143.234 233.49 143.722C232.461 143.7 224.76 143.547 219.783 143.725C214.656 143.908 213.838 142.136 213.83 142.118L213.474 142.263C213.506 142.342 214.276 144.121 219.056 144.121C219.293 144.121 219.54 144.117 219.797 144.108Z" fill="#2F2E41"/>
<path d="M219.079 144.491H218.967C218.574 144.491 218.256 144.809 218.256 145.202V145.314C218.256 145.706 218.574 146.024 218.967 146.024H219.079C219.472 146.024 219.79 145.706 219.79 145.314V145.202C219.79 144.809 219.472 144.491 219.079 144.491Z" fill="#2F2E41"/>
<path d="M232.201 144.491H232.313C232.502 144.491 232.683 144.566 232.816 144.699C232.949 144.833 233.024 145.013 233.024 145.202V145.314C233.024 145.503 232.949 145.683 232.816 145.816C232.683 145.95 232.502 146.024 232.313 146.024H232.201C232.012 146.024 231.831 145.95 231.698 145.816C231.565 145.683 231.49 145.503 231.49 145.314V145.202C231.49 145.013 231.565 144.833 231.698 144.699C231.831 144.566 232.012 144.491 232.201 144.491V144.491Z" fill="#2F2E41"/>
<path d="M219.839 115.252C219.904 115.23 219.97 115.212 220.037 115.201L222.513 109.599L221.637 108.397L223.28 106.838L225.039 108.816C225.181 108.975 225.267 109.177 225.285 109.39C225.303 109.603 225.251 109.816 225.137 109.997L221.43 115.897C221.547 116.133 221.59 116.398 221.553 116.659C221.515 116.92 221.399 117.162 221.22 117.356C221.041 117.549 220.808 117.683 220.55 117.74C220.293 117.797 220.025 117.775 219.781 117.676C219.537 117.577 219.329 117.406 219.184 117.186C219.04 116.965 218.966 116.707 218.972 116.444C218.978 116.18 219.065 115.925 219.22 115.713C219.374 115.5 219.59 115.339 219.839 115.252V115.252Z" fill="#FFB8B8"/>
<path d="M225.263 107.137C225.263 107.329 222.961 110.012 222.31 109.755C221.658 109.499 221.427 108.67 220.444 107.815C219.462 106.959 218.55 102.346 218.55 102.346C218.55 102.346 225.263 106.945 225.263 107.137Z" fill="#282117"/>
</g>
<defs>
<clipPath id="clip0">
<rect width="270" height="173" fill="white"/>
</clipPath>
</defs>
</svg>
