<svg width="86" height="85" viewBox="0 0 86 85" fill="none" xmlns="http://www.w3.org/2000/svg">
<path fill-rule="evenodd" clip-rule="evenodd" d="M84.703 3.58939L82.3769 3.21938L81.7664 0.942716L85.2757 0L84.7054 3.58939H84.703ZM53.5462 36.1838L51.5406 37.4188L51.5359 37.414L51.5288 37.4023L51.5053 37.3646L51.4251 37.2302C51.3591 37.1171 51.2602 36.9521 51.1423 36.7424C50.8121 36.1653 50.4939 35.5815 50.1878 34.9913C49.2192 33.1359 48.3736 31.2188 47.6566 29.2525C46.86 27.0277 46.1766 24.48 46.0705 22.0148C45.9668 19.559 46.424 16.8935 48.2529 14.803C49.8956 12.927 52.9924 11.1995 56.2471 9.70526C59.6197 8.15214 63.5885 6.66265 67.3476 5.37348C72.0038 3.7833 76.707 2.334 81.4506 1.02756L81.6863 0.96157L81.7688 0.938002L82.3816 3.21702L84.7077 3.58703L84.6936 3.67424L84.6535 3.92406C84.4182 5.3699 84.1715 6.81388 83.9135 8.25584C83.2856 11.8019 82.6005 15.3375 81.8584 18.8614C81.0193 22.8232 80.0436 26.9758 79.009 30.4521C78.4929 32.189 77.9508 33.794 77.3899 35.1421C76.8525 36.4383 76.2162 37.6969 75.4432 38.583C73.7887 40.4732 71.2127 41.0647 68.962 41.2156C66.6146 41.3735 64.0127 41.0883 61.6725 40.6735C59.5853 40.2975 57.5182 39.8177 55.4788 39.2358C54.6443 39.0008 53.8146 38.7494 52.99 38.4817L52.8416 38.4298L52.8015 38.4157L52.7897 38.4133H52.785L53.5486 36.1814L53.5462 36.1838ZM53.5462 36.1838L51.5406 37.4188L51.9837 38.1376L52.785 38.4133L53.5462 36.1838ZM55.13 34.2206C57.5429 34.9737 59.9992 35.5798 62.4855 36.0353C64.6632 36.4195 66.8409 36.6363 68.6462 36.5138C70.5528 36.3865 71.5097 35.9198 71.8939 35.4815C72.139 35.1987 72.5396 34.5293 73.0345 33.3368C73.5082 32.1985 73.9985 30.7632 74.4887 29.1111C75.4715 25.8116 76.4165 21.798 77.2461 17.888C78.0422 14.1052 78.7713 10.3086 79.4332 6.50003L78.705 6.71214C76.0913 7.48281 72.5608 8.56929 68.8772 9.83253C65.1864 11.0981 61.3849 12.5287 58.215 13.9876C54.925 15.5006 52.7049 16.8746 51.7999 17.9092C51.0763 18.7341 50.704 20.0044 50.7817 21.8121C50.8571 23.6103 51.3733 25.6537 52.0945 27.6593C52.8062 29.6437 53.6735 31.4773 54.3711 32.8207C54.6657 33.3863 54.9273 33.8624 55.13 34.2206ZM10.047 9.52143L9.43656 11.7981L7.10805 12.1681L6.5377 8.58107L10.0493 9.52379L10.047 9.52143ZM32.8654 38.5877L34.871 39.8203L34.8757 39.8156L34.8805 39.8062L34.8993 39.7756L34.9677 39.6624C35.323 39.0571 35.6625 38.4425 35.9858 37.8194C36.608 36.6222 37.4022 34.9512 38.0668 33.1035C38.722 31.2746 39.2924 29.1559 39.3796 27.0913C39.4691 25.0338 39.0873 22.7383 37.4989 20.9236C36.0942 19.3163 33.4947 17.8833 30.8551 16.6672C28.0953 15.3969 24.8547 14.1808 21.7932 13.132C18.0014 11.837 14.1715 10.6565 10.3086 9.59214L10.1153 9.54029L10.047 9.52143L9.43656 11.7981L7.10805 12.1681L7.11983 12.2388L7.15283 12.4439L7.28009 13.2122C7.91602 17.0243 8.63186 20.8227 9.42713 24.6049C10.1106 27.829 10.9072 31.2157 11.7509 34.0556C12.1751 35.4744 12.6182 36.7966 13.0825 37.9113C13.5232 38.9719 14.0629 40.0536 14.7417 40.8267C16.2029 42.5 18.4489 42.9949 20.3084 43.1175C22.2693 43.2495 24.421 43.0114 26.3418 42.6744C28.7535 42.2414 31.1318 41.6397 33.4593 40.8738L33.5795 40.8338L33.6149 40.822L33.6266 40.8172L32.8654 38.5877ZM32.8654 38.5877L34.871 39.8203L34.428 40.5415L33.6266 40.8172L32.8654 38.5877ZM31.2793 36.6222C32.2002 34.9857 32.986 33.2769 33.629 31.5126C34.2064 29.903 34.6118 28.2886 34.6707 26.8886C34.732 25.4793 34.435 24.579 33.9519 24.0251C33.2849 23.2662 31.5645 22.1821 28.8848 20.9495C26.33 19.7735 23.2568 18.6163 20.2636 17.5911C17.6563 16.701 15.0302 15.8665 12.3873 15.0882L12.3967 15.1471C12.7973 17.4096 13.3677 20.464 14.0394 23.6292C14.7111 26.8014 15.477 30.0467 16.2689 32.7122C16.6672 34.0462 17.0584 35.1987 17.4355 36.1037C17.8362 37.0629 18.1378 37.5507 18.2887 37.7251C18.4819 37.9443 19.1065 38.3143 20.6242 38.4157C22.0407 38.51 23.7706 38.3403 25.524 38.0315C27.4699 37.6808 29.392 37.2093 31.2793 36.6198V36.6222ZM26.1179 59.0918C25.5193 59.1248 25.2271 59.2096 25.1516 59.2426C24.084 59.7258 20.8411 60.857 18.0412 61.8115C16.6036 62.3041 15.2248 62.766 14.2067 63.1078L14.1407 63.1313V75.8651C14.5555 75.8462 15.0009 75.8297 15.4558 75.8132C17.4072 75.7425 19.7287 75.6718 20.735 75.7142C24.9584 75.8816 28.1306 76.8809 31.0672 77.8071L31.1308 77.8283C33.8835 78.6956 36.4336 79.4922 39.7732 79.7443C40.7159 79.8151 41.6327 79.907 42.4882 79.9918H42.5C45.7853 80.3218 47.9489 80.4867 49.6245 79.8787C50.9278 79.405 55.7003 77.1919 60.5129 74.7715C62.8933 73.5743 65.2265 72.3558 67.0813 71.3118C68.0122 70.7886 68.8017 70.3219 69.4074 69.9307C69.7091 69.7351 69.9495 69.5701 70.1333 69.4358C70.2056 69.3828 70.2763 69.3278 70.3454 69.2708L70.4114 69.2142C70.6471 68.9762 70.8969 68.1466 70.4916 67.3665C70.3008 67.0017 69.9856 66.7174 69.6031 66.5652C69.1317 66.3601 68.3304 66.2022 67.0577 66.412C64.1871 66.8834 60.758 68.2644 57.3336 69.6573L57.2865 69.6785C55.6037 70.362 53.9163 71.0478 52.4197 71.5474C50.9821 72.0259 49.3865 72.4548 47.996 72.3723C46.087 72.2545 42.738 71.7596 39.9758 71.3118C38.3885 71.0551 36.8031 70.7864 35.2198 70.5057L34.9135 70.4515L34.805 70.4303L35.2528 65.7544L46.0234 65.8841H46.0469C46.1727 65.8704 46.2973 65.8468 46.4193 65.8134C46.7917 65.7191 47.4304 65.4858 48.234 64.9178C48.4815 64.741 48.8067 64.4158 49.1108 63.9798C49.2357 63.7983 49.3417 63.6192 49.4313 63.4472C48.1181 63.3636 46.8133 63.1792 45.5284 62.8957C44.8288 62.7433 44.1346 62.5665 43.4474 62.3654L43.3673 62.3418L30.1763 59.4053L30.0514 59.384C29.3492 59.2675 28.6423 59.181 27.9326 59.1248C27.3291 59.0747 26.7229 59.0637 26.1179 59.0918ZM30.6382 57.0956L31.0648 54.7789L31.1072 54.7859L44.5834 57.7838L44.6824 57.8144L44.7012 57.8215L44.7908 57.8474L45.1631 57.9535C45.4907 58.043 45.9621 58.1656 46.523 58.2881C47.6684 58.5356 49.1013 58.7642 50.4258 58.7642C51.7527 58.7642 53.1951 59.2591 53.9728 60.6685C54.6374 61.8752 54.4725 63.1808 54.2391 64.0434C54.0226 64.8061 53.6997 65.5344 53.2799 66.207C53.9964 65.9241 54.7576 65.6178 55.5566 65.2925L55.7027 65.2312C58.9504 63.9114 62.8438 62.3277 66.2918 61.7597C70.2983 61.1045 73.3032 62.5421 74.6772 65.2006C75.8886 67.5456 75.6199 70.6377 73.7699 72.5184C73.3056 72.9898 72.615 73.4682 71.9551 73.8948C71.2387 74.3544 70.3619 74.8729 69.3909 75.4196C67.4466 76.5132 65.0403 77.7694 62.627 78.9831C57.8615 81.38 52.8416 83.725 51.2295 84.3095C48.4344 85.3229 45.2008 85 42.3279 84.7125L42.0286 84.6818C41.1592 84.5927 40.2887 84.5141 39.4173 84.4462C35.505 84.1492 32.5072 83.2041 29.7686 82.3415L29.7097 82.3227C26.7637 81.3941 24.1099 80.5669 20.5465 80.4231C19.764 80.3925 17.657 80.449 15.6255 80.5245C14.4815 80.566 13.3376 80.6123 12.194 80.6635L11.89 80.6777L9.42477 80.7908V59.7305L11.4917 59.0447C13.1688 58.4873 14.8437 57.9232 16.5164 57.3525C19.4482 56.3509 22.4036 55.3115 23.2096 54.9486C24.0746 54.5573 25.0574 54.4301 25.8445 54.3829C26.6812 54.3358 27.5414 54.3712 28.2932 54.4277C29.1982 54.4986 30.0995 54.611 30.9941 54.7647L31.0436 54.7742H31.0577L31.0625 54.7765H31.0672L30.6382 57.0956Z" fill="#507A4F"/>
<path fill-rule="evenodd" clip-rule="evenodd" d="M68.7004 17.2187C68.9356 17.4199 69.1289 17.6654 69.2693 17.9413C69.4096 18.2172 69.4942 18.518 69.5183 18.8266C69.5424 19.1351 69.5054 19.4454 69.4096 19.7397C69.3137 20.034 69.1608 20.3066 68.9596 20.5418C61.9341 28.7387 53.188 40.7513 49.3276 50.5154C49.2137 50.8033 49.0442 51.0659 48.8288 51.2882C48.6135 51.5105 48.3564 51.6883 48.0723 51.8113C47.7883 51.9343 47.4828 52.0001 47.1733 52.005C46.8637 52.0099 46.5563 51.9539 46.2685 51.84C45.9806 51.7261 45.7181 51.5566 45.4957 51.3412C45.2734 51.1258 45.0956 50.8688 44.9727 50.5847C44.8497 50.3007 44.7838 49.9951 44.7789 49.6856C44.774 49.3761 44.8301 49.0687 44.944 48.7808C49.099 38.2719 58.2622 25.7786 65.3773 17.4756C65.7843 17.0012 66.363 16.7079 66.9862 16.6602C67.6093 16.6124 68.226 16.8142 68.7004 17.2211V17.2187Z" fill="#282117"/>
<path fill-rule="evenodd" clip-rule="evenodd" d="M22.1067 24.7793C21.8637 24.9711 21.6608 25.2089 21.5097 25.4792C21.3586 25.7495 21.2623 26.0468 21.2262 26.3543C21.1901 26.6619 21.2149 26.9735 21.2993 27.2714C21.3836 27.5693 21.5259 27.8476 21.7178 28.0906C27.0018 34.7956 32.7712 43.3767 35.5098 50.4942C35.7449 51.0623 36.1927 51.516 36.7577 51.7586C37.3226 52.0011 37.96 52.0133 38.5338 51.7925C39.1076 51.5717 39.5724 51.1354 39.829 50.5768C40.0857 50.0181 40.1139 49.3812 39.9076 48.802C36.9121 41.0152 30.7915 31.9863 25.418 25.1729C25.0313 24.682 24.4655 24.3648 23.845 24.291C23.2245 24.2172 22.6001 24.3928 22.1091 24.7793H22.1067Z" fill="#282117"/>
<path d="M0 54.3617H14.1407V85H0V54.3617Z" fill="#282117"/>
</svg>
